<?xml version="1.0" encoding="UTF-8"?>
<svg version="1.1" xmlns="http://www.w3.org/2000/svg" width="512" height="512">
<path d="M0 0 C1.3307959 -0.05184448 1.3307959 -0.05184448 2.68847656 -0.10473633 C6.92079135 -0.13218165 9.06696187 0.07637469 12.69140625 2.421875 C15.21914769 6.36413034 15.33470404 9.58900019 15.1875 14.125 C15.17090332 15.02508789 15.15430664 15.92517578 15.13720703 16.85253906 C13.81777344 58.24036789 4.82937033 100.35000677 -8.375 139.4375 C-8.66036621 140.30487793 -8.94573242 141.17225586 -9.23974609 142.06591797 C-17.10048289 165.83433869 -28.05808284 188.87176264 -42.375 209.4375 C-42.76993652 210.00662109 -43.16487305 210.57574219 -43.57177734 211.16210938 C-46.05212783 214.68981443 -48.68538745 218.06798316 -51.375 221.4375 C-51.79416058 221.9633733 -52.21332115 222.4892466 -52.64518356 223.03105545 C-59.42478355 231.45307695 -66.5463332 238.37517249 -75.07988358 244.98056793 C-103.56874595 267.3849403 -124.00370774 288.4943029 -128.57613182 325.56071281 C-130.13944636 339.82720065 -130.94601128 354.24563595 -131.1043396 368.59588623 C-131.11355375 369.40444376 -131.12276791 370.21300129 -131.13226128 371.04606056 C-131.14384069 372.53139684 -131.14611657 374.01685416 -131.13627815 375.50220299 C-131.17960973 385.39091295 -133.46277031 390.451202 -140.375 397.4375 C-141.00349539 398.09058514 -141.63199078 398.74367027 -142.27953148 399.41654587 C-144.31748001 401.51644397 -146.38014894 403.58922157 -148.44995117 405.65771484 C-149.61227516 406.82507675 -149.61227516 406.82507675 -150.79808044 408.01602173 C-153.33542266 410.5627892 -155.87644948 413.10583891 -158.41796875 415.6484375 C-160.19207444 417.42575915 -161.96610588 419.20315492 -163.74006653 420.98062134 C-167.44594878 424.69247192 -171.15387254 428.40226936 -174.86303711 432.11083984 C-179.14673323 436.39393294 -183.42479325 440.68259964 -187.70030993 444.97385633 C-191.82699303 449.11518663 -195.95918855 453.25097966 -200.09350014 457.38469315 C-201.84742051 459.13979461 -203.59971715 460.89652025 -205.35036278 462.65488815 C-207.79161143 465.1059044 -210.23907821 467.55053918 -212.68823242 469.99365234 C-213.41091309 470.72195251 -214.13359375 471.45025269 -214.87817383 472.20062256 C-215.54668869 472.86494293 -216.21520355 473.52926331 -216.90397644 474.2137146 C-217.76972935 475.08028466 -217.76972935 475.08028466 -218.65297222 475.96436119 C-221.60632818 478.49086124 -223.88843497 479.37442676 -227.75 479.875 C-232.12510129 479.34697053 -234.56535394 477.72080587 -237.375 474.4375 C-238.49633789 471.15991211 -238.49633789 471.15991211 -239.03515625 467.27734375 C-239.14271744 466.55175766 -239.25027863 465.82617157 -239.36109924 465.07859802 C-239.728419 462.53475287 -240.05308416 459.98747681 -240.375 457.4375 C-240.64624138 455.39329476 -240.91825315 453.34919164 -241.19091797 451.30517578 C-242.2381138 443.35520726 -243.27404488 435.40348056 -244.24731445 427.4440918 C-244.66785859 424.02418618 -245.11116645 420.60788398 -245.55859375 417.19140625 C-245.6816539 416.139496 -245.80471405 415.08758575 -245.9315033 414.00379944 C-246.06166336 413.03776291 -246.19182343 412.07172638 -246.32592773 411.07641602 C-246.43235092 410.2261232 -246.53877411 409.37583038 -246.64842224 408.49977112 C-247.1923092 406.26466901 -247.1923092 406.26466901 -249.34532166 405.22961426 C-250.01511551 404.96821655 -250.68490936 404.70681885 -251.375 404.4375 C-252.89892578 403.12475586 -252.89892578 403.12475586 -254.3203125 401.65234375 C-254.83980469 401.12189453 -255.35929688 400.59144531 -255.89453125 400.04492188 C-256.68923828 399.21831055 -256.68923828 399.21831055 -257.5 398.375 C-261.07053366 394.4330106 -261.07053366 394.4330106 -265.375 391.4375 C-265.61814941 392.11240479 -265.86129883 392.78730957 -266.11181641 393.48266602 C-267.64811999 397.07638118 -269.58133788 400.36986058 -271.5859375 403.71484375 C-272.2000499 404.74829674 -272.2000499 404.74829674 -272.8265686 405.80262756 C-273.69062983 407.25508705 -274.55641848 408.70652012 -275.42382812 410.15698242 C-276.74226954 412.36207084 -278.05517365 414.57037934 -279.3671875 416.77929688 C-280.21061253 418.19550609 -281.05435231 419.61152791 -281.8984375 421.02734375 C-282.28712006 421.6806517 -282.67580261 422.33395966 -283.07626343 423.00706482 C-290.61895071 435.60535104 -290.61895071 435.60535104 -297.375 437.4375 C-307.88384273 436.29108079 -315.98641078 424.97985567 -323.05786133 417.91577148 C-324.1081599 416.87011175 -325.15865166 415.82464604 -326.20932007 414.77935791 C-329.0399738 411.96171571 -331.86738265 409.14084044 -334.69376969 406.31891894 C-336.46229482 404.55333894 -338.23139938 402.7883415 -340.00067711 401.0235157 C-345.54466198 395.49316744 -351.08666941 389.96084901 -356.62577802 384.42561668 C-363.0060237 378.04986192 -369.39277653 371.6807209 -375.78520948 365.31718582 C-380.73929948 360.38471277 -385.68760925 355.44648951 -390.63157099 350.50386482 C-393.57957777 347.55690477 -396.52995153 344.61241243 -399.48636818 341.67388725 C-402.26322723 338.91351213 -405.03283135 336.14605865 -407.79706955 333.37304688 C-408.81071433 332.35863228 -409.82691621 331.34676525 -410.84588051 330.33769417 C-412.23951762 328.95679616 -413.62297317 327.56564547 -415.00593567 326.17405701 C-415.78183454 325.3996247 -416.5577334 324.62519239 -417.35714436 323.82729244 C-420.56993884 320.02230669 -422.375 316.89382185 -422.375 311.875 C-420.44014463 305.22393466 -414.78330977 302.20658523 -409.09765625 298.93359375 C-408.06420326 298.32584862 -408.06420326 298.32584862 -407.00987244 297.70582581 C-404.82321774 296.42165996 -402.63069984 295.14794912 -400.4375 293.875 C-398.24912081 292.5964534 -396.0620349 291.31573892 -393.87583923 290.03346252 C-392.52056951 289.23945044 -391.16385225 288.44790193 -389.80543518 287.6592865 C-386.81236666 285.9137545 -383.8908061 284.13047469 -381.03686523 282.16430664 C-378.375 280.4375 -378.375 280.4375 -376.375 280.4375 C-380.65649657 275.40674153 -385.08645091 270.65922987 -389.87109375 266.1015625 C-391.375 264.4375 -391.375 264.4375 -391.375 262.4375 C-391.97618149 262.3564653 -392.57736298 262.2754306 -393.19676208 262.19194031 C-399.54197766 261.33595579 -405.88651775 260.47508651 -412.23071289 259.61157227 C-414.58797015 259.29134776 -416.94538835 258.97230532 -419.30297852 258.65454102 C-425.99903777 257.75158972 -432.69087683 256.82458049 -439.37860107 255.86175537 C-442.13453504 255.47154705 -444.89281899 255.10843879 -447.65283203 254.74853516 C-449.17637514 254.5282151 -450.69967364 254.30619305 -452.22265625 254.08203125 C-453.50277588 253.90647705 -454.78289551 253.73092285 -456.10180664 253.55004883 C-460.53944038 252.04171013 -461.78186177 250.30704556 -464.375 246.4375 C-465.14038536 241.67510222 -464.47887082 239.07436941 -461.74273682 235.16443634 C-458.87070004 231.53813586 -455.54883379 228.33520637 -452.2734375 225.07714844 C-451.05324921 223.85170319 -451.05324921 223.85170319 -449.80841064 222.60150146 C-447.1272719 219.91158411 -444.43891213 217.22902023 -441.75 214.546875 C-439.88170593 212.67723343 -438.01370881 210.80729508 -436.14599609 208.93707275 C-432.23568482 205.02313039 -428.32119217 201.11340727 -424.40429688 197.20605469 C-419.87891554 192.69157148 -415.36080456 188.16990804 -410.8463726 183.64447761 C-406.49613703 179.28406942 -402.14029512 174.92930749 -397.78204346 170.57691193 C-395.93057361 168.72677744 -394.0805916 166.87515282 -392.2321167 165.02202606 C-389.65173534 162.43657606 -387.06504769 159.85760661 -384.4765625 157.28027344 C-383.71176575 156.51142822 -382.94696899 155.74258301 -382.15899658 154.95043945 C-381.45248962 154.24957214 -380.74598267 153.54870483 -380.01806641 152.82659912 C-379.40750397 152.21679073 -378.79694153 151.60698235 -378.1678772 150.97869492 C-374.06273898 147.44983184 -369.86650667 146.92946575 -364.625 146.359375 C-362.99640453 146.174039 -361.3678246 145.98856642 -359.73925781 145.80297852 C-358.86998657 145.70590607 -358.00071533 145.60883362 -357.10510254 145.50881958 C-354.304875 145.17924663 -351.51445997 144.80120151 -348.72167969 144.41381836 C-339.47565477 143.17882887 -330.59394249 142.26415475 -321.26075745 142.79118347 C-299.37551165 143.97825205 -282.55732039 141.27618948 -265.94778442 126.53266907 C-251.69650639 113.48813454 -238.46748119 99.28584604 -225.74638367 84.75601196 C-219.41240413 77.54195891 -213.08609796 71.22197653 -205.375 65.4375 C-204.60958389 64.8621048 -203.84416779 64.28670959 -203.05555725 63.69387817 C-152.67942436 26.31968122 -91.61263338 10.63526367 -30.375 2.4375 C-29.40191895 2.30472656 -28.42883789 2.17195312 -27.42626953 2.03515625 C-18.3041837 0.82001591 -9.20066743 0.20609116 0 0 Z M-95.375 36.4375 C-91.30945329 41.31726751 -87.04673724 45.90605256 -82.54345703 50.38256836 C-81.56190895 51.36433548 -81.56190895 51.36433548 -80.56053162 52.36593628 C-78.42032311 54.50545414 -76.27660617 56.64141876 -74.1328125 58.77734375 C-72.63901251 60.26927655 -71.14543472 61.76143186 -69.65206909 63.25379944 C-65.73837761 67.16368949 -61.82169135 71.07056594 -57.90435791 74.97680664 C-53.90055912 78.97034006 -49.89962187 82.96673809 -45.8984375 86.96289062 C-38.06007787 94.79055485 -30.21854907 102.61503599 -22.375 110.4375 C-19.46814439 104.85531444 -18.43229713 98.79441654 -17.0625 92.6875 C-16.90915192 92.0077713 -16.75580383 91.3280426 -16.59780884 90.62771606 C-11.48811863 67.82054791 -8.03018439 44.75830695 -6.375 21.4375 C-35.96163373 21.4375 -66.92738173 29.27009562 -95.375 36.4375 Z M-216.2743094 104.08699656 C-218.46466461 106.27835498 -220.65010006 108.47454856 -222.83544922 110.67089844 C-224.43312277 112.26913753 -226.0312396 113.8669336 -227.62976074 115.46432495 C-231.92667066 119.76066593 -236.21742798 124.06310257 -240.5070281 128.36674023 C-245.00636664 132.87866332 -249.51144858 137.38484461 -254.01589966 141.8916626 C-261.56217618 149.44342978 -269.10495983 156.99866759 -276.64501953 164.55664062 C-284.40436626 172.33440224 -292.16585316 180.11001804 -299.93017578 187.8828125 C-300.65049851 188.6039234 -300.65049851 188.6039234 -301.38537322 189.3396022 C-303.79496927 191.75180871 -306.20460691 194.16397367 -308.6142652 196.57611799 C-328.54095912 216.52347734 -348.46031586 236.47815108 -368.375 256.4375 C-364.76470336 260.73502574 -361.07179585 264.86512427 -357.09780884 268.83494568 C-356.60265601 269.33095294 -356.10750317 269.82696019 -355.59734571 270.33799797 C-353.95999615 271.97697688 -352.31913146 273.6123879 -350.67822266 275.24780273 C-349.4948717 276.43087124 -348.31174164 277.61416073 -347.1288147 278.7976532 C-343.93315952 281.99359409 -340.73444082 285.18645251 -337.53514528 288.37874866 C-334.18613264 291.72149024 -330.83997067 295.06708297 -327.49349976 298.41236877 C-321.16332965 304.73943661 -314.83061578 311.063952 -308.49697435 317.38754469 C-301.28338294 324.58994063 -294.07264667 331.79519214 -286.86214375 339.00067985 C-272.03626099 353.81612323 -257.20681282 368.62799339 -242.375 383.4375 C-241.25379843 382.4824028 -240.13343599 381.52632049 -239.01342773 380.56982422 C-238.38943588 380.0375119 -237.76544403 379.50519958 -237.12254333 378.95675659 C-235.14275864 377.23559702 -233.27345846 375.435927 -231.4375 373.5625 C-230.41666667 372.52083333 -229.39583333 371.47916667 -228.375 370.4375 C-232.59017162 365.40441664 -236.99055971 360.68725895 -241.6496582 356.06518555 C-242.35118515 355.36511887 -243.0527121 354.66505219 -243.77549744 353.94377136 C-245.28685438 352.43619741 -246.79936468 350.92977899 -248.31292152 349.42441368 C-250.70622118 347.04394197 -253.09632631 344.6603037 -255.48564148 342.27583313 C-260.55012329 337.22273841 -265.61853535 332.17359726 -270.6875 327.125 C-276.57968545 321.25640049 -282.47025681 315.38619972 -288.3566494 309.51178932 C-290.71509404 307.15984208 -293.07652132 304.81091729 -295.43806458 302.46208191 C-296.87462787 301.0291489 -298.31105222 299.59607657 -299.74731445 298.1628418 C-300.40754608 297.50777649 -301.06777771 296.85271118 -301.74801636 296.17779541 C-302.34653915 295.57934311 -302.94506195 294.98089081 -303.5617218 294.36430359 C-304.08395986 293.84428615 -304.60619791 293.3242687 -305.14426136 292.78849316 C-307.94194974 289.71744482 -307.7122407 286.60137179 -307.6484375 282.6328125 C-307.375 280.4375 -307.375 280.4375 -305.8125 277.9375 C-302.54264866 275.92528379 -300.21297545 275.50367199 -296.375 275.4375 C-290.62109257 277.61257222 -286.94480584 281.46094713 -282.71728516 285.75463867 C-281.60406387 286.86720284 -281.60406387 286.86720284 -280.46835327 288.00224304 C-278.02640787 290.44627207 -275.5952501 292.90074212 -273.1640625 295.35546875 C-271.46935495 297.05577374 -269.77398217 298.75541592 -268.07797241 300.454422 C-263.62274717 304.92108424 -259.17660598 309.39668328 -254.7322998 313.87420654 C-250.19287316 318.44435843 -245.64490868 323.00599635 -241.09765625 327.56835938 C-232.18173076 336.51642888 -223.27508604 345.47367726 -214.375 354.4375 C-210.43049341 352.84081752 -207.77256638 350.11490755 -204.829422 347.14588928 C-204.28107482 346.60066209 -203.73272765 346.05543489 -203.16776389 345.49368566 C-201.33076748 343.66466886 -199.50100539 341.82858328 -197.67114258 339.99243164 C-196.35553736 338.67953652 -195.03950706 337.36706725 -193.7230835 336.05499268 C-190.14581499 332.48685449 -186.57491794 328.91240252 -183.00538087 325.33653188 C-179.26363521 321.58972212 -175.51701127 317.84779557 -171.77116394 314.10508728 C-165.47363857 307.8112035 -159.18034713 301.51310923 -152.8894043 295.21264648 C-145.63487312 287.94726347 -138.37321005 280.68906865 -131.10773546 273.43463045 C-124.86097619 267.19697814 -118.61816203 260.95539758 -112.37856406 254.71058172 C-108.65635584 250.98526823 -104.93284032 247.26128839 -101.20575905 243.54084969 C-97.69394758 240.0348595 -94.18714829 236.52392879 -90.68399048 233.0092926 C-89.40429208 231.72697159 -88.12292953 230.44630859 -86.83969688 229.16752434 C-77.33206967 219.68979473 -68.49187877 209.9602489 -60.9375 198.8125 C-60.25010742 197.79929688 -60.25010742 197.79929688 -59.54882812 196.765625 C-38.36081507 166.94518796 -38.36081507 166.94518796 -29.62423134 133.51090622 C-30.5625909 130.91942811 -31.83179553 129.60321051 -33.77792358 127.65362549 C-34.50699417 126.91609543 -35.23606476 126.17856537 -35.98722839 125.41868591 C-36.79243423 124.61955276 -37.59764008 123.82041962 -38.42724609 122.99707031 C-39.27113388 122.14792557 -40.11502167 121.29878082 -40.98448181 120.42390442 C-43.29917947 118.09826207 -45.62050607 115.77950518 -47.94543028 113.46409321 C-50.37620396 111.04091296 -52.79965167 108.61042391 -55.22427368 106.18109131 C-59.29615068 102.10375689 -63.37431172 98.0327881 -67.45605469 93.96533203 C-72.17813589 89.25958826 -76.88929742 84.54311933 -81.59495294 79.82095456 C-85.63363594 75.76866939 -89.67812125 71.72224517 -93.72753775 67.68068576 C-96.14692729 65.26597832 -98.56423218 62.84927776 -100.9763298 60.42728424 C-103.66503376 57.7309967 -106.36310561 55.0444555 -109.06396484 52.36035156 C-109.86512222 51.55312149 -110.6662796 50.74589142 -111.49171448 49.91419983 C-112.22642471 49.18794907 -112.96113495 48.4616983 -113.71810913 47.71343994 C-114.67436471 46.75888098 -114.67436471 46.75888098 -115.64993858 45.78503799 C-135.20204377 30.51183998 -203.34948284 91.22038559 -216.2743094 104.08699656 Z M-315.06347656 160.92504883 C-334.77109043 158.80011527 -355.09604222 159.78537864 -371.15843201 172.36462688 C-381.89558927 181.23833703 -391.66094374 191.16693954 -401.25 201.25 C-402.0054158 202.04400333 -402.7608316 202.83800667 -403.53913879 203.65607071 C-411.19356499 211.73377955 -418.72146874 219.92176183 -426.08154297 228.26879883 C-426.89421316 229.18900676 -426.89421316 229.18900676 -427.72330093 230.12780476 C-430.23601852 232.47741681 -430.23601852 232.47741681 -431.375 235.4375 C-424.89991825 236.48894516 -418.42188574 237.52044211 -411.94140625 238.53808594 C-409.73689832 238.88667862 -407.53310832 239.2398434 -405.33007812 239.59765625 C-402.16453526 240.11098753 -398.99678026 240.60785671 -395.828125 241.1015625 C-394.84257629 241.26500153 -393.85702759 241.42844055 -392.84161377 241.59683228 C-391.46063507 241.80727676 -391.46063507 241.80727676 -390.05175781 242.02197266 C-388.83930389 242.21516586 -388.83930389 242.21516586 -387.60235596 242.41226196 C-384.2606112 242.45012707 -382.17530651 241.12134619 -379.66465378 238.97604275 C-379.09314213 238.40398633 -378.52163048 237.83192991 -377.93280029 237.24253845 C-376.94009628 236.25612617 -376.94009628 236.25612617 -375.92733765 235.24978638 C-375.21236115 234.52919037 -374.49738464 233.80859436 -373.76074219 233.06616211 C-372.99937958 232.30669785 -372.23801697 231.54723358 -371.45358276 230.76475525 C-368.93810077 228.25297841 -366.4298916 225.73407314 -363.921875 223.21484375 C-362.17917722 221.47095418 -360.43610997 219.72743375 -358.69268799 217.98426819 C-355.04136792 214.33138383 -351.39343391 210.67516247 -347.74804688 207.01635742 C-343.06304691 202.31433629 -338.37145938 197.6189565 -333.67756271 192.92581844 C-330.07948866 189.32747323 -326.48402097 185.72653353 -322.88944244 182.12469673 C-321.15958333 180.39164452 -319.42910822 178.65920695 -317.69802094 176.92738152 C-315.28670673 174.51391229 -312.87870677 172.09718726 -310.47167969 169.67944336 C-309.74860626 168.95682312 -309.02553284 168.23420288 -308.2805481 167.48968506 C-307.30476303 166.50750252 -307.30476303 166.50750252 -306.30926514 165.50547791 C-305.73926159 164.93379851 -305.16925804 164.36211912 -304.58198166 163.77311611 C-303.26325408 162.61387598 -303.26325408 162.61387598 -303.375 161.4375 C-304.79377441 161.46976685 -304.79377441 161.46976685 -306.24121094 161.50268555 C-309.22219072 161.50804233 -312.10369786 161.27304132 -315.06347656 160.92504883 Z M-367.7734375 299.015625 C-368.40480621 299.38347107 -369.03617493 299.75131714 -369.68667603 300.13031006 C-371.02451134 300.9116414 -372.3610151 301.69525642 -373.69628906 302.48095703 C-375.73058345 303.67609289 -377.77115921 304.85991898 -379.8125 306.04296875 C-381.11237877 306.80400537 -382.41187062 307.56570333 -383.7109375 308.328125 C-384.31835785 308.67933411 -384.9257782 309.03054321 -385.55160522 309.39239502 C-389.09722074 311.49346824 -391.38545965 313.44795965 -394.375 316.4375 C-363.685 347.1275 -332.995 377.8175 -301.375 409.4375 C-297.97309021 406.03559021 -295.61118458 402.90629715 -293.1953125 398.84375 C-292.81889618 398.21521118 -292.44247986 397.58667236 -292.05465698 396.93908691 C-291.26648938 395.61649081 -290.48172237 394.29186288 -289.70019531 392.96533203 C-288.49818608 390.93443523 -287.27307279 388.91870339 -286.046875 386.90234375 C-285.28239293 385.61284435 -284.51932162 384.3225073 -283.7578125 383.03125 C-283.3881839 382.43010376 -283.0185553 381.82895752 -282.63772583 381.20959473 C-281.4965814 379.31851357 -281.4965814 379.31851357 -280.375 376.4375 C-281.50032005 373.36188895 -283.23276095 371.32884013 -285.52526855 369.03326416 C-286.17301743 368.37987564 -286.8207663 367.72648712 -287.48814392 367.05329895 C-288.19781815 366.34767319 -288.90749237 365.64204742 -289.63867188 364.91503906 C-290.38677628 364.16343002 -291.13488068 363.41182098 -291.90565491 362.63743591 C-294.38001099 360.15427627 -296.86161232 357.6785045 -299.34375 355.203125 C-301.06275246 353.48277578 -302.7814579 351.76212973 -304.49987793 350.04119873 C-308.10132802 346.43679948 -311.70637293 342.83604463 -315.31396484 339.23779297 C-319.94812696 334.61504228 -324.57323122 329.98334949 -329.1957016 325.34891129 C-332.74186087 321.7955425 -336.29274824 318.2469295 -339.84510803 314.69976044 C-341.55309579 312.99311081 -343.25958822 311.28496337 -344.96458435 309.57532501 C-347.34204011 307.19281715 -349.72576564 304.81676967 -352.11132812 302.44238281 C-353.17583946 301.37179878 -353.17583946 301.37179878 -354.26185608 300.27958679 C-354.90960495 299.63747757 -355.55735382 298.99536835 -356.22473145 298.33380127 C-356.7881147 297.77117207 -357.35149796 297.20854286 -357.93195343 296.62886429 C-361.29731758 293.85045453 -364.60627181 297.15456241 -367.7734375 299.015625 Z M-150.57273865 321.18525696 C-151.2559166 321.79624741 -151.93909454 322.40723785 -152.64297485 323.03674316 C-153.39686493 323.71724731 -154.150755 324.39775146 -154.92749023 325.09887695 C-156.11259438 326.16569954 -156.11259438 326.16569954 -157.32164001 327.2540741 C-164.66658072 333.89865302 -171.88316433 340.67637688 -179.06011868 347.50169086 C-183.88093646 352.07950238 -188.73183934 356.59801933 -193.70288086 361.01391602 C-216.26068594 379.39367212 -216.26068594 379.39367212 -228.49835205 404.43499756 C-229.00943307 416.54759458 -225.90488455 428.25805962 -221.96895027 439.61449242 C-221.23781553 441.85855937 -220.75783234 444.11014186 -220.375 446.4375 C-218.03641572 444.44345574 -215.70451544 442.44212246 -213.375 440.4375 C-212.40070038 439.6014624 -211.42640076 438.7654248 -210.4225769 437.90405273 C-201.01741983 429.79899375 -191.83336827 421.46813133 -182.8125 412.9375 C-182.10285221 412.26652031 -181.39320442 411.59554062 -180.66205215 410.90422821 C-159.70674939 390.95162307 -146.38701433 375.47830714 -145.45333862 345.56518555 C-145.37701452 339.5841222 -145.63395082 333.69413658 -146.1890564 327.74053955 C-146.4404599 324.62673404 -146.43190626 321.55959664 -146.375 318.4375 C-148.17054259 318.4375 -149.28836888 320.035863 -150.57273865 321.18525696 Z " fill="#000000" transform="translate(497.375,-0.4375)"/>
<path d="M0 0 C11.81114906 13.02315832 18.36625304 28.53353896 18.04125977 46.20800781 C17.19010842 63.21438621 10.12532643 77.99771056 -2.18359375 89.78125 C-9.67834679 95.93183538 -18.59547185 100.864208 -28.05859375 103.140625 C-29.14333984 103.41132813 -29.14333984 103.41132813 -30.25 103.6875 C-47.6046332 106.48741301 -64.62454703 103.34610592 -79.05859375 93.140625 C-90.87686309 84.39022499 -98.49875755 72.35878031 -102.05859375 58.140625 C-102.249375 57.39167969 -102.44015625 56.64273438 -102.63671875 55.87109375 C-105.25999324 38.89267832 -101.8106392 23.76129007 -93.05859375 9.140625 C-82.510752 -4.98732362 -68.52043176 -13.07416714 -51.43359375 -16.609375 C-32.62620143 -18.3951274 -13.99366699 -12.97116522 0 0 Z M-71.2421875 16.1953125 C-79.92828425 25.49784192 -82.67919646 34.82260604 -82.4140625 47.41015625 C-81.66708358 55.2493306 -78.82366342 61.88647106 -74.05859375 68.140625 C-73.22328125 69.378125 -73.22328125 69.378125 -72.37109375 70.640625 C-65.5799769 77.98237295 -56.28309197 82.49375244 -46.375 83.5234375 C-33.51165327 83.91205825 -23.67443186 79.97495859 -14.1171875 71.3984375 C-7.1738798 64.17019924 -3.45423555 54.83436973 -2.99609375 44.85546875 C-3.2654132 33.15690494 -7.30582655 23.8207956 -15.30859375 15.265625 C-31.58060856 0.05482854 -55.23725996 1.25738013 -71.2421875 16.1953125 Z " fill="#000000" transform="translate(368.05859375,142.859375)"/>
<path d="M0 0 C2.86027695 2.10757249 3.81407876 3.44223629 4.9375 6.8125 C5.06634061 13.38337093 2.07036845 17.17969022 -2.28881836 21.77656555 C-4.12964099 23.6319989 -5.97913089 25.47471226 -7.83984375 27.30981445 C-8.86088838 28.33136841 -9.88105824 29.35379734 -10.90042114 30.37702942 C-13.65996694 33.14197705 -16.43171765 35.89438219 -19.20601273 38.64452004 C-22.1102921 41.52745357 -25.00357691 44.42138106 -27.89819336 47.31401062 C-32.757229 52.16660713 -37.62359122 57.0117507 -42.49511719 61.85180664 C-48.74880145 68.06514526 -54.99094787 74.28993959 -61.22929382 80.5186739 C-66.5952168 85.87629755 -71.96559793 91.22944566 -77.33711624 96.58145881 C-78.48956021 97.72985421 -79.64185 98.87840438 -80.79398727 100.02710748 C-84.07636101 103.29969388 -87.36106312 106.56990279 -90.64980698 109.83608818 C-91.6459605 110.82612156 -92.64128265 111.81699226 -93.63571548 112.80875397 C-94.99189054 114.16094466 -96.35144823 115.50974023 -97.71118164 116.85835266 C-98.47145157 117.61434911 -99.2317215 118.37034555 -100.01502991 119.14925098 C-104.20623531 123.05705257 -107.01443721 123.51696008 -112.546875 123.36328125 C-115 123 -115 123 -118.125 121.125 C-120.32537766 117.4577039 -120.99539877 115.0484832 -120.70042992 110.79544163 C-119.83842616 107.35515285 -118.49081111 105.85572011 -116.05874634 103.29246521 C-114.83072737 101.9874471 -114.83072737 101.9874471 -113.57789993 100.65606499 C-112.72719296 99.77956354 -111.87648598 98.9030621 -111 98 C-110.22237682 97.19388842 -109.44475365 96.38777683 -108.64356613 95.55723763 C-106.17392374 93.02395971 -103.68282575 90.51360024 -101.18505859 88.00805664 C-100.23926002 87.05597093 -99.29364278 86.10370504 -98.34819031 85.15127563 C-95.28508477 82.06743201 -92.21692078 78.98864738 -89.1484375 75.91015625 C-88.08460116 74.84226398 -87.02079549 73.77434116 -85.95701981 72.70638847 C-80.96568286 67.69608356 -75.97199559 62.68813605 -70.97535932 57.68311602 C-65.22909806 51.92704859 -59.49125024 46.16275839 -53.76024568 40.39150149 C-49.31012999 35.9112138 -44.85235378 31.43864145 -40.3887831 26.97175878 C-37.73058328 24.31121422 -35.07575876 21.64750012 -32.42902756 18.97554207 C-29.48241479 16.00128655 -26.52009719 13.04316553 -23.55615234 10.08618164 C-22.68843704 9.20565628 -21.82072174 8.32513092 -20.92671204 7.41792297 C-14.48296729 1.0292284 -9.33655575 -4.05171287 0 0 Z " fill="#000000" transform="translate(120,389)"/>
<path d="M0 0 C3.00115208 2.00076805 4.46981125 3.47217799 5.66015625 6.90234375 C6.41327068 10.71178666 6.42972886 12.2824695 4.36038208 15.73771667 C1.89979955 19.31952593 -1.03343161 22.30714002 -4.11376953 25.35668945 C-5.01690887 26.26267632 -5.01690887 26.26267632 -5.93829346 27.18696594 C-7.91495834 29.16731352 -9.8986914 31.14040642 -11.8828125 33.11328125 C-13.26272454 34.49200038 -14.64226624 35.87109026 -16.02145386 37.25053406 C-18.90493494 40.13245482 -21.79173366 43.01099545 -24.68115234 45.88696289 C-28.38982254 49.57858807 -32.09181985 53.27681791 -35.79159737 56.9773531 C-38.63594209 59.82142642 -41.48288134 62.66289024 -44.33071518 65.50346947 C-45.69730529 66.86687266 -47.0632864 68.23088655 -48.42865372 69.5955143 C-50.33160443 71.49630488 -52.23780615 73.39377099 -54.14501953 75.2902832 C-54.99442612 76.14036957 -54.99442612 76.14036957 -55.86099243 77.00762939 C-59.41893187 80.53631083 -61.30938303 82.1563764 -66.3125 82.375 C-69.9416224 82.32240402 -70.87436105 82.08637678 -74 79.9375 C-76.40813237 76.40055558 -77 74.27436594 -77 70 C-74.93844456 64.82521425 -71.90811036 61.4880964 -68.015625 57.65917969 C-67.41528442 57.05679474 -66.81494385 56.45440979 -66.19641113 55.83377075 C-64.22144502 53.85581036 -62.23598255 51.88876899 -60.25 49.921875 C-58.87083602 48.54577066 -57.49226381 47.16907301 -56.11425781 45.79180908 C-53.23045045 42.91259605 -50.34181291 40.03835362 -47.44921875 37.16796875 C-43.74003075 33.4871154 -40.0396235 29.7975915 -36.34234619 26.10477829 C-33.49816086 23.26474703 -30.65115543 20.42755816 -27.80310059 17.59140778 C-26.43747688 16.23148296 -25.07232157 14.87108762 -23.7076416 13.51021576 C-21.80248226 11.61192332 -19.89398332 9.71705776 -17.984375 7.82324219 C-17.42012817 7.26011322 -16.85588135 6.69698425 -16.27453613 6.11679077 C-10.94601581 0.84661867 -7.47837767 -1.24639628 0 0 Z " fill="#000000" transform="translate(147,416)"/>
<path d="M0 0 C3.02597694 2.01731796 4.52507825 3.47604222 5.6171875 6.98046875 C6.04874372 10.67485153 5.61396815 13.15710928 3.40118408 16.19494629 C2.69290466 16.94852417 1.98462524 17.70210205 1.25488281 18.47851562 C0.43604614 19.35314453 -0.38279053 20.22777344 -1.22644043 21.12890625 C-6.42770558 26.51307756 -11.66805337 31.85428912 -16.953125 37.15625 C-17.55645409 37.76240646 -18.15978317 38.36856293 -18.78139496 38.99308777 C-21.96162052 42.18816696 -25.14460099 45.38046934 -28.33007812 48.5703125 C-31.61071871 51.85648122 -34.8819431 55.15186334 -38.15117264 58.44937897 C-40.68032996 60.99714607 -43.21615691 63.53819389 -45.7538681 66.07743835 C-46.96359363 67.29018428 -48.17082509 68.50542352 -49.37546539 69.72322083 C-51.05483323 71.41964704 -52.74341397 73.10635229 -54.43457031 74.79101562 C-54.92609589 75.29175598 -55.41762146 75.79249634 -55.92404175 76.30841064 C-58.74897813 79.09951802 -61.16049387 80.914125 -65 82 C-69.22030829 81.92463735 -71.43676127 81.38348169 -74.9375 79 C-77.30787058 75.55218824 -77.90790541 73.54835376 -77.55744934 69.41836548 C-76.92690525 66.68289529 -76.1658063 65.59512757 -74.2800293 63.54443359 C-73.32391251 62.50461334 -73.32391251 62.50461334 -72.34848022 61.44378662 C-67.2155689 56.10257067 -62.00599248 50.8411248 -56.76953125 45.6015625 C-55.48867226 44.31748499 -54.20788635 43.03333457 -52.9271698 41.74911499 C-50.25700637 39.07299621 -47.58481728 36.39891918 -44.91137695 33.72607422 C-41.48659145 30.30139091 -38.06877165 26.86984422 -34.65262318 23.43654823 C-32.01636206 20.78918018 -29.37558026 18.14635781 -26.73349571 15.5048027 C-25.47080517 14.24093296 -24.20973391 12.97544327 -22.95032692 11.70830154 C-21.19400387 9.94219184 -19.43147147 8.18251759 -17.66723633 6.42431641 C-17.15027191 5.90173248 -16.6333075 5.37914856 -16.10067749 4.84072876 C-10.94199465 -0.27319223 -7.25146209 -2.16825896 0 0 Z " fill="#000000" transform="translate(91,360)"/>
<path d="M0 0 C3.5386994 1.65139305 4.81070153 2.71605229 7 6 C7.562249 14.85542169 7.562249 14.85542169 5 18 C1.60229091 20.29147823 -0.44666853 21 -4.5625 21 C-8.7332414 19.78669341 -10.3911183 18.45293166 -13 15 C-14.03027506 11.70311982 -14.17298003 9.72651613 -13.375 6.375 C-10.07810621 0.68036528 -6.45274928 -0.80659366 0 0 Z " fill="#000000" transform="translate(174,246)"/>
</svg>
